<svg xmlns="http://www.w3.org/2000/svg" width="512" height="288" viewBox="0 0 512 288" role="img" aria-label="Title Fight Essential Music Kit thumbnail">
  <defs>
    <linearGradient id="bg" x1="0" x2="1" y1="0" y2="1">
      <stop offset="0" stop-color="#101513"/>
      <stop offset="0.52" stop-color="#191a15"/>
      <stop offset="1" stop-color="#241313"/>
    </linearGradient>
    <radialGradient id="glow" cx="0.18" cy="0.2" r="0.86">
      <stop offset="0" stop-color="#d8e0c2" stop-opacity="0.28"/>
      <stop offset="0.42" stop-color="#89a56e" stop-opacity="0.1"/>
      <stop offset="1" stop-color="#000000" stop-opacity="0"/>
    </radialGradient>
    <filter id="rough">
      <feTurbulence type="fractalNoise" baseFrequency="0.8" numOctaves="2" seed="27"/>
      <feColorMatrix type="saturate" values="0"/>
      <feComponentTransfer>
        <feFuncA type="table" tableValues="0 0.18"/>
      </feComponentTransfer>
    </filter>
    <filter id="paper">
      <feDropShadow dx="0" dy="8" stdDeviation="9" flood-color="#000000" flood-opacity="0.38"/>
    </filter>
  </defs>

  <rect width="512" height="288" fill="url(#bg)"/>
  <rect width="512" height="288" fill="url(#glow)"/>
  <rect width="512" height="288" filter="url(#rough)" opacity="0.55"/>

  <g opacity="0.34">
    <path d="M-18 248 C75 206 134 220 209 188 C283 157 348 129 530 132" fill="none" stroke="#e7e1c8" stroke-width="2"/>
    <path d="M-12 264 C81 222 139 236 214 204 C288 173 353 145 536 148" fill="none" stroke="#6f8f6b" stroke-width="2"/>
    <path d="M-6 232 C86 190 145 204 220 172 C294 141 359 113 542 116" fill="none" stroke="#b36b4d" stroke-width="2"/>
  </g>

  <g transform="translate(314 30)" opacity="0.7">
    <circle cx="74" cy="74" r="49" fill="none" stroke="#d8e0c2" stroke-width="2" opacity="0.62"/>
    <circle cx="74" cy="74" r="10" fill="#d8e0c2" opacity="0.78"/>
    <path d="M74 24 C93 45 94 61 80 72 C65 51 60 38 74 24Z" fill="#d8e0c2" opacity="0.2"/>
    <path d="M124 74 C103 93 87 94 76 80 C97 65 110 60 124 74Z" fill="#d8e0c2" opacity="0.2"/>
    <path d="M74 124 C55 103 54 87 68 76 C83 97 88 110 74 124Z" fill="#d8e0c2" opacity="0.2"/>
    <path d="M24 74 C45 55 61 54 72 68 C51 83 38 88 24 74Z" fill="#d8e0c2" opacity="0.2"/>
  </g>

  <g transform="translate(34 36)" filter="url(#paper)">
    <path d="M0 0 L272 0 L292 146 L18 166 Z" fill="#ede7cf"/>
    <path d="M0 0 L272 0 L292 146 L18 166 Z" fill="none" stroke="#1a1a18" stroke-width="3"/>
    <path d="M18 22 L251 14" stroke="#1a1a18" stroke-width="4"/>
    <path d="M27 136 L265 119" stroke="#1a1a18" stroke-width="3" opacity="0.68"/>
    <text x="24" y="68" font-family="Impact, Haettenschweiler, 'Arial Narrow Bold', sans-serif" font-size="47" fill="#171815" letter-spacing="1">TITLE</text>
    <text x="24" y="116" font-family="Impact, Haettenschweiler, 'Arial Narrow Bold', sans-serif" font-size="52" fill="#171815" letter-spacing="1">FIGHT</text>
    <text x="160" y="142" font-family="Arial, sans-serif" font-size="13" font-weight="700" fill="#7a2e2b" letter-spacing="2">ESSENTIAL KIT</text>
    <path d="M21 82 L253 67" stroke="#7a2e2b" stroke-width="2" opacity="0.72"/>
  </g>

  <g transform="translate(48 228)">
    <rect x="0" y="0" width="416" height="30" rx="15" fill="#121513" stroke="#2c3328"/>
    <path d="M19 16 L41 16 M49 16 L76 16 M84 16 L93 16 M101 16 L132 16 M140 16 L151 16 M159 16 L191 16 M199 16 L222 16 M230 16 L241 16 M249 16 L284 16 M292 16 L319 16 M327 16 L359 16 M367 16 L397 16" stroke="#d8e0c2" stroke-width="4" stroke-linecap="round"/>
  </g>

  <text x="256" y="276" text-anchor="middle" font-family="Arial, sans-serif" font-size="11" font-weight="700" fill="#a6b08e" letter-spacing="2">DEADLOCK MUSIC REPLACEMENT</text>
</svg>
