<svg xmlns="http://www.w3.org/2000/svg" viewBox="0 0 480 480" fill="none" stroke="#bba87f" stroke-width="1.1" stroke-linecap="round" stroke-linejoin="round" opacity="0.18">

  <g transform="translate(75 80) rotate(-8)">
    <circle r="26"/>
    <path d="M0 -24 L14.1 19.4 L-22.8 -7.4 L22.8 -7.4 L-14.1 19.4 Z"/>
  </g>

  <g transform="translate(370 70) rotate(-18)">
    <path d="M0 -16 A 16 16 0 1 0 0 16 A 12 12 0 1 1 0 -16 Z"/>
    <circle cx="-22" cy="-4" r="1.2" fill="#bba87f"/>
    <circle cx="-26" cy="6" r="1" fill="#bba87f"/>
  </g>

  <g transform="translate(210 80)">
    <path d="M-30 0 q 7 -9 14 0 q 7 9 14 0 q 7 -9 14 0 q 7 9 14 0"/>
    <circle cx="-30" cy="0" r="1.6" fill="#bba87f"/>
    <path d="M30 -3 l 4 -2 M30 3 l 4 2"/>
  </g>

  <g transform="translate(90 200) rotate(3)">
    <path d="M-22 0 q 22 -12 44 0 q -22 12 -44 0 Z"/>
    <circle cx="0" cy="0" r="5"/>
    <circle cx="0" cy="0" r="1.8" fill="#bba87f"/>
    <path d="M-26 -8 l -4 -3 M26 -8 l 4 -3 M0 -12 l 0 -4"/>
  </g>

  <g transform="translate(260 195)">
    <path d="M0 -22 L19 11 L-19 11 Z"/>
    <path d="M0 22 L19 -11 L-19 -11 Z"/>
    <circle r="2" fill="#bba87f"/>
  </g>

  <g transform="translate(410 195) rotate(-6)">
    <path d="M-10 -5 L-4 -16 L2 -3 L-4 8 Z"/>
    <path d="M0 0 L6 -13 L11 1 L5 14 Z"/>
    <path d="M9 7 L14 -2 L20 8 L14 16 Z"/>
  </g>

  <g transform="translate(60 320)">
    <path d="M0 -28 L24 14 L-24 14 Z"/>
    <path d="M-12 0 q 12 -5 24 0 q -12 5 -24 0 Z"/>
    <circle cx="0" cy="0" r="2.2" fill="#bba87f"/>
  </g>

  <g transform="translate(200 320)">
    <circle r="6"/>
    <circle r="2" fill="#bba87f"/>
    <path d="M11 0 L17 0 M-11 0 L-17 0 M0 11 L0 17 M0 -11 L0 -17"/>
    <path d="M8 -8 L12.5 -12.5 M-8 -8 L-12.5 -12.5 M8 8 L12.5 12.5 M-8 8 L-12.5 12.5"/>
  </g>

  <g transform="translate(370 315) rotate(28)">
    <circle cx="-14" cy="0" r="6"/>
    <circle cx="-14" cy="0" r="2"/>
    <path d="M-8 0 L18 0 M14 0 L14 5 M10 0 L10 4"/>
  </g>

  <g transform="translate(105 425)">
    <path d="M-5 14 L5 14 L5 -6 L-5 -6 Z"/>
    <path d="M-5 14 L5 14"/>
    <path d="M0 -6 L0 -10"/>
    <path d="M0 -10 q -3 -3 0 -7 q 3 4 0 7 Z"/>
  </g>

  <g transform="translate(260 415)">
    <circle cy="-8" r="7"/>
    <path d="M0 -1 L0 18 M-9 6 L9 6"/>
  </g>

  <g transform="translate(400 420)">
    <circle r="14"/>
    <path d="M14 -1 q 3 -2 1 -5 q -2 -2 -4 0"/>
    <circle cx="10" cy="-4" r="0.9" fill="#bba87f"/>
  </g>

  <circle cx="155" cy="48" r="1.6" fill="#bba87f"/>
  <circle cx="300" cy="252" r="1.6" fill="#bba87f"/>
  <circle cx="435" cy="362" r="1.6" fill="#bba87f"/>
  <circle cx="35" cy="378" r="1.6" fill="#bba87f"/>
  <circle cx="320" cy="135" r="1.4" fill="#bba87f"/>
  <circle cx="455" cy="125" r="1.4" fill="#bba87f"/>
  <circle cx="148" cy="252" r="1.6" fill="#bba87f"/>
  <circle cx="180" cy="385" r="1.4" fill="#bba87f"/>
  <circle cx="345" cy="378" r="1.4" fill="#bba87f"/>
  <circle cx="220" cy="240" r="1.6" fill="#bba87f"/>
  <circle cx="40" cy="140" r="1.4" fill="#bba87f"/>
  <circle cx="425" cy="50" r="1.4" fill="#bba87f"/>

  <g stroke-width="0.7" opacity="0.85">
    <path d="M125 165 l 0 -5 M125 165 l 0 5 M125 165 l -5 0 M125 165 l 5 0"/>
    <path d="M335 60 l 0 -4 M335 60 l 0 4 M335 60 l -4 0 M335 60 l 4 0"/>
    <path d="M55 250 l 0 -4 M55 250 l 0 4 M55 250 l -4 0 M55 250 l 4 0"/>
    <path d="M315 365 l 0 -4 M315 365 l 0 4 M315 365 l -4 0 M315 365 l 4 0"/>
  </g>
</svg>
