<svg xmlns="http://www.w3.org/2000/svg" viewBox="0 0 480 480" fill="none" stroke="#5e5039" stroke-width="1.1" stroke-linecap="round" stroke-linejoin="round" opacity="0.28">

  <!-- Compass rose -->
  <g transform="translate(85 90)">
    <circle r="28"/>
    <circle r="22"/>
    <path d="M0 -28 L4 0 L0 28 L-4 0 Z"/>
    <path d="M-28 0 L0 -4 L28 0 L0 4 Z"/>
    <path d="M-20 -20 L0 -2 L20 -20 L2 0 L20 20 L0 2 L-20 20 L-2 0 Z"/>
    <circle r="2"/>
    <path d="M0 -32 L-3 -36 L3 -36 Z"/>
  </g>

  <!-- Anchor -->
  <g transform="translate(220 95)">
    <circle cy="-18" r="4"/>
    <path d="M0 -14 L0 14"/>
    <path d="M-8 -8 L8 -8"/>
    <path d="M-16 8 q 0 12 16 12 q 16 0 16 -12"/>
    <path d="M-16 8 L-22 4 M-16 8 L-20 14"/>
    <path d="M16 8 L22 4 M16 8 L20 14"/>
  </g>

  <!-- Wave -->
  <g transform="translate(370 90)">
    <path d="M-30 0 q 7 -10 14 0 q 7 10 14 0 q 7 -10 14 0 q 7 10 14 0"/>
    <path d="M-26 -10 q 6 -8 12 -2"/>
    <path d="M-12 -16 q 4 -4 10 -2"/>
    <path d="M-26 8 q 6 6 10 2 M-6 8 q 6 6 10 2 M14 8 q 6 6 10 2"/>
  </g>

  <!-- Sextant -->
  <g transform="translate(85 215)">
    <path d="M-20 14 L20 14 L0 -22 Z"/>
    <path d="M-16 14 q 0 -20 16 -28 q 16 8 16 28"/>
    <path d="M-12 14 L-4 -8"/>
    <path d="M-14 14 L-14 18 M-8 14 L-8 18 M-2 14 L-2 18 M4 14 L4 18 M10 14 L10 18 M14 14 L14 18"/>
    <circle cx="0" cy="-22" r="1.5" fill="#5e5039"/>
  </g>

  <!-- Sea serpent / dragon -->
  <g transform="translate(220 215)">
    <path d="M-30 0 q 6 -16 12 0 q 6 16 12 0 q 6 -16 12 0 q 6 16 12 0"/>
    <path d="M30 -2 q 4 -2 6 -8 q -2 -4 -6 -2"/>
    <circle cx="32" cy="-4" r="0.9" fill="#5e5039"/>
    <path d="M34 -4 L38 -8 M34 -2 L40 -2"/>
    <path d="M-30 0 q -4 4 -8 4 q -2 -2 0 -6 q 4 -2 8 2"/>
  </g>

  <!-- Sailor's knot (figure-8) -->
  <g transform="translate(380 220)">
    <path d="M-12 -8 q -8 6 0 12 q 8 6 0 12 M12 -8 q 8 6 0 12 q -8 6 0 12"/>
    <path d="M-12 -8 q 6 -2 12 -2 q 6 0 12 2 M-12 16 q 6 2 12 2 q 6 0 12 -2"/>
    <path d="M-12 -8 L-18 -12 M-12 16 L-18 20 M12 -8 L18 -12 M12 16 L18 20"/>
  </g>

  <!-- Ship wheel -->
  <g transform="translate(85 335)">
    <circle r="18"/>
    <circle r="14"/>
    <circle r="4"/>
    <path d="M0 -22 L0 -14 M0 22 L0 14 M-22 0 L-14 0 M22 0 L14 0"/>
    <path d="M-15.5 -15.5 L-9.9 -9.9 M15.5 -15.5 L9.9 -9.9 M-15.5 15.5 L-9.9 9.9 M15.5 15.5 L9.9 9.9"/>
    <path d="M0 -22 L-3 -26 L3 -26 Z M0 22 L-3 26 L3 26 Z"/>
    <path d="M-22 0 L-26 -3 L-26 3 Z M22 0 L26 -3 L26 3 Z"/>
  </g>

  <!-- Lighthouse -->
  <g transform="translate(220 335)">
    <path d="M-8 14 L-6 -8 L6 -8 L8 14 Z"/>
    <path d="M-10 -8 L10 -8"/>
    <path d="M-7 -8 L-7 -14 L7 -14 L7 -8"/>
    <path d="M-5 -14 L-5 -20 L5 -20 L5 -14"/>
    <path d="M-3 -20 L0 -24 L3 -20"/>
    <path d="M-10 -2 L10 -2 M-9 6 L9 6"/>
    <path d="M-14 -14 L-7 -14 M14 -14 L7 -14" stroke-dasharray="2 2"/>
  </g>

  <!-- Fish -->
  <g transform="translate(380 330) rotate(-6)">
    <path d="M-18 0 q 14 -10 28 0 q -14 10 -28 0 Z"/>
    <path d="M-18 0 L-26 -6 L-26 6 Z"/>
    <circle cx="6" cy="-1" r="1.3" fill="#5e5039"/>
    <path d="M-4 -2 q 4 -3 8 0 M-6 4 q 8 4 14 0"/>
  </g>

  <!-- Map message in bottle / scroll -->
  <g transform="translate(85 430) rotate(-4)">
    <path d="M-22 -6 L-22 6 L22 6 L22 -6 Z"/>
    <path d="M-22 -6 q -6 6 0 12 M22 -6 q 6 6 0 12"/>
    <path d="M-15 -2 L15 -2 M-15 2 L8 2"/>
  </g>

  <!-- Trident -->
  <g transform="translate(220 430)">
    <path d="M0 16 L0 -12"/>
    <path d="M-10 -8 L-10 -16 L-6 -12 L-6 -18"/>
    <path d="M10 -8 L10 -16 L6 -12 L6 -18"/>
    <path d="M-6 -12 L0 -16 L6 -12 L0 -22 Z"/>
    <path d="M-4 16 L4 16"/>
  </g>

  <!-- Tiny boat -->
  <g transform="translate(385 430)">
    <path d="M-16 4 q 16 8 32 0 L12 4 Z"/>
    <path d="M-2 4 L-2 -16 L12 -2 L-2 -2"/>
    <path d="M-14 -10 L-14 4 L-8 -8 L-14 -10"/>
  </g>

  <!-- Scattered nav dots -->
  <circle cx="155" cy="48" r="1.4" fill="#5e5039"/>
  <circle cx="305" cy="155" r="1.4" fill="#5e5039"/>
  <circle cx="40" cy="155" r="1.4" fill="#5e5039"/>
  <circle cx="155" cy="270" r="1.4" fill="#5e5039"/>
  <circle cx="305" cy="270" r="1.4" fill="#5e5039"/>
  <circle cx="155" cy="385" r="1.4" fill="#5e5039"/>
  <circle cx="305" cy="385" r="1.4" fill="#5e5039"/>
  <circle cx="455" cy="155" r="1.4" fill="#5e5039"/>

  <!-- Wind direction arrows -->
  <g stroke-width="0.7" opacity="0.8">
    <path d="M345 50 q 14 -4 28 0 M373 50 l -4 -3 M373 50 l -4 3"/>
    <path d="M130 130 q 14 -4 28 0 M158 130 l -4 -3 M158 130 l -4 3"/>
    <path d="M40 380 q 14 -4 28 0 M68 380 l -4 -3 M68 380 l -4 3"/>
  </g>
</svg>
